<svg xmlns="http://www.w3.org/2000/svg" viewBox="0 0 96 96">
<rect width="96" height="96" rx="20" fill="#FFF7E6"/>
<path d="M31 58c8 7 18 8 30 2 5-3 8-8 10-15l6 2c-1 11-7 19-16 24-13 7-26 6-37-2l7-11z" fill="#FACC15"/>
<path d="M28 54c-2-9 0-17 6-24l5 5c-3 5-5 11-4 17l-7 2z" fill="#EAB308"/>
<path d="M59 43c3-6 8-11 15-14l2 6c-4 2-8 5-11 10l-6-2z" fill="#EAB308"/>
<text x="48" y="84" font-family="Arial, sans-serif" font-size="11" font-weight="700" fill="#92400E" text-anchor="middle">Kulit Pisang</text>
</svg>