<svg xmlns="http://www.w3.org/2000/svg" viewBox="0 0 24 24" fill="#b45309"><path d="M18.375 2.25c-1.035 0-1.875.84-1.875 1.875v15.75c0 1.035.84 1.875 1.875 1.875h.75c1.035 0 1.875-.84 1.875-1.875V4.125c0-1.036-.84-1.875-1.875-1.875h-.75ZM9.75 8.625c0-1.036.84-1.875 1.875-1.875h.75c1.036 0 1.875.84 1.875 1.875v11.25c0 1.035-.84 1.875-1.875 1.875h-.75c-1.036 0-1.875-.84-1.875-1.875V8.625ZM3 13.125c0-1.036.84-1.875 1.875-1.875h.75c1.036 0 1.875.84 1.875 1.875v6.75c0 1.035-.84 1.875-1.875 1.875h-.75C3.84 21.75 3 20.91 3 19.875v-6.75Z"/></svg>
